<?xml version="1.0" encoding="UTF-8"?>
<!DOCTYPE svg PUBLIC "-//W3C//DTD SVG 1.1//EN" "http://www.w3.org/Graphics/SVG/1.1/DTD/svg11.dtd">
<!-- Creator: CorelDRAW 2018 (64-Bit Evaluation Version) -->
<svg xmlns="http://www.w3.org/2000/svg" xml:space="preserve" width="2550px" height="2267px" version="1.1" style="shape-rendering:geometricPrecision; text-rendering:geometricPrecision; image-rendering:optimizeQuality; fill-rule:evenodd; clip-rule:evenodd"
viewBox="0 0 2550 2266.67"
 xmlns:xlink="http://www.w3.org/1999/xlink"
 aria-hidden="true"
 focusable="false"
 data-prefix="far"
 data-icon="comments-alt"
 role="img">
 <defs>
  <style type="text/css">
   <![CDATA[
    .fil0 {fill:#F8DA02}
   ]]>
  </style>
 </defs>
 <g id="Layer_x0020_1">
  <metadata id="CorelCorpID_0Corel-Layer"/>
  <path class="fil0" d="M2266.67 708.33l-425 0 0 -425c0,-156.27 -127.06,-283.33 -283.34,-283.33l-1275 0c-156.27,0 -283.33,127.06 -283.33,283.33l0 708.34c0,156.27 127.06,283.33 283.33,283.33l141.67 0 0 230.21c0,31.43 25.68,53.12 53.12,53.12 10.63,0 21.7,-3.1 31.44,-10.62l340.44 -192.58 0 344.87c0,156.28 127.06,283.33 283.33,283.33l425 0 482.11 272.71c9.74,7.08 20.81,10.63 31.44,10.63 27.44,0 53.12,-21.7 53.12,-53.13l0 -230.21 141.67 0c156.27,0 283.33,-127.05 283.33,-283.33l0 -708.33c0,-156.28 -127.06,-283.34 -283.33,-283.34zm-1841.67 354.17l-141.67 0c-38.96,0 -70.83,-31.88 -70.83,-70.83l0 -708.34c0,-38.96 31.88,-70.83 70.83,-70.83l1275 0c38.96,0 70.84,31.87 70.84,70.83l0 708.34c0,38.95 -31.88,70.83 -70.84,70.83l-622.44 0 -48.7 27.45 -249.69 141.22 0 -168.67 -212.5 0zm1912.5 637.5c0,38.96 -31.88,70.83 -70.83,70.83l-354.17 0 0 168.67 -249.69 -141.22 -48.7 -27.45 -480.78 0c-38.95,0 -70.83,-31.87 -70.83,-70.83l0 -425 495.83 0c156.28,0 283.34,-127.06 283.34,-283.33l0 -70.84 425 0c38.96,0 70.83,31.88 70.83,70.84l0 708.33 0 0z"/>
 </g>
</svg>
